<svg width="194" height="59" viewBox="0 0 194 59" fill="none" xmlns="http://www.w3.org/2000/svg">
<path d="M89.32 23.4H83.56C81.384 23.4 79.72 23.992 78.568 25.176C77.416 26.328 76.84 28.056 76.84 30.36V45H70.12V30.36C70.12 27.096 71.144 24.568 73.192 22.776C75.272 20.952 78.248 20.04 82.12 20.04H89.32V23.4ZM105.861 41.64C106.949 41.64 107.941 41.48 108.837 41.16C109.765 40.808 110.549 40.264 111.189 39.528C111.861 38.792 112.373 37.848 112.725 36.696C113.109 35.544 113.301 34.152 113.301 32.52C113.301 30.888 113.109 29.496 112.725 28.344C112.373 27.192 111.861 26.248 111.189 25.512C110.549 24.776 109.765 24.248 108.837 23.928C107.941 23.576 106.949 23.4 105.861 23.4H99.8613V41.64H105.861ZM93.1413 45V11.4H99.8613V20.04H105.861C108.069 20.04 110.069 20.328 111.861 20.904C113.685 21.48 115.237 22.312 116.517 23.4C117.797 24.488 118.773 25.8 119.445 27.336C120.149 28.872 120.501 30.6 120.501 32.52C120.501 34.44 120.149 36.168 119.445 37.704C118.773 39.24 117.797 40.552 116.517 41.64C115.237 42.728 113.685 43.56 111.861 44.136C110.069 44.712 108.069 45 105.861 45H93.1413ZM132.961 45H126.241V20.52H132.961V45ZM133.201 14.04C133.201 15 132.865 15.848 132.193 16.584C131.553 17.288 130.689 17.64 129.601 17.64C128.513 17.64 127.633 17.288 126.961 16.584C126.321 15.848 126.001 15 126.001 14.04C126.001 13.08 126.321 12.248 126.961 11.544C127.633 10.808 128.513 10.44 129.601 10.44C130.657 10.44 131.521 10.808 132.193 11.544C132.865 12.248 133.201 13.08 133.201 14.04ZM142.083 23.4H137.523V20.04H142.083V12.36H148.803V20.04H156.243V23.4H148.803V35.88C148.803 37.096 148.931 38.136 149.187 39C149.475 39.832 149.843 40.52 150.291 41.064C150.771 41.576 151.315 41.96 151.923 42.216C152.531 42.472 153.171 42.6 153.843 42.6C154.803 42.6 155.731 42.456 156.627 42.168C157.523 41.848 158.275 41.512 158.883 41.16L160.323 44.28C159.363 44.76 158.259 45.16 157.011 45.48C155.795 45.8 154.579 45.96 153.363 45.96C149.747 45.96 146.963 45.064 145.011 43.272C143.059 41.48 142.083 39.016 142.083 35.88V23.4ZM183.837 44.04H177.597C173.021 44.04 169.629 43.224 167.421 41.592C165.245 39.928 164.157 37.464 164.157 34.2V20.04H170.877V34.2C170.877 36.504 171.453 38.168 172.605 39.192C173.757 40.184 175.421 40.68 177.597 40.68H183.837V20.04H190.557V44.52C190.557 46.024 190.269 47.384 189.693 48.6C189.117 49.848 188.253 50.92 187.101 51.816C185.981 52.712 184.557 53.4 182.829 53.88C181.133 54.36 179.149 54.6 176.877 54.6C176.109 54.6 175.277 54.536 174.381 54.408C173.517 54.312 172.637 54.136 171.741 53.88C170.845 53.656 169.965 53.352 169.101 52.968C168.269 52.616 167.501 52.2 166.797 51.72L168.717 48.84C169.805 49.576 171.021 50.152 172.365 50.568C173.709 51.016 175.053 51.24 176.397 51.24C178.797 51.24 180.637 50.696 181.917 49.608C183.197 48.52 183.837 46.824 183.837 44.52V44.04Z" fill="white"/>
<mask id="path-2-outside-1_1_40" maskUnits="userSpaceOnUse" x="12" y="6" width="51" height="48" fill="black">
<rect fill="white" x="12" y="6" width="51" height="48"/>
<path d="M15.6563 29.5938C15.6563 24.0938 17.75 19.3333 21.9375 15.3125C26.1042 11.2708 31.3125 9.25 37.5625 9.25C44 9.25 49.3438 11.2812 53.5938 15.3438C57.8438 19.4062 59.9688 24.3229 59.9688 30.0938C59.9688 35.9271 57.8958 40.8333 53.75 44.8125C49.6042 48.7708 44.2396 50.75 37.6562 50.75C30.9271 50.75 25.4375 48.4583 21.1875 43.875C17.5 39.8958 15.6563 35.1354 15.6563 29.5938ZM17.9375 30.1875C17.9375 33.9792 19.3438 37.0208 22.1562 39.3125C25.6562 42.1667 30.7812 43.5938 37.5312 43.5938C44.4479 43.5938 49.7708 42.1146 53.5 39.1562C56.3333 36.8854 57.75 33.8854 57.75 30.1563C57.75 26.1771 56.1979 22.8958 53.0938 20.3125C49.9896 17.7083 45.0938 16.4062 38.4062 16.4062C31.1563 16.4062 25.75 17.8333 22.1875 20.6875C19.3542 22.9792 17.9375 26.1458 17.9375 30.1875Z"/>
</mask>
<path d="M15.6563 29.5938C15.6563 24.0938 17.75 19.3333 21.9375 15.3125C26.1042 11.2708 31.3125 9.25 37.5625 9.25C44 9.25 49.3438 11.2812 53.5938 15.3438C57.8438 19.4062 59.9688 24.3229 59.9688 30.0938C59.9688 35.9271 57.8958 40.8333 53.75 44.8125C49.6042 48.7708 44.2396 50.75 37.6562 50.75C30.9271 50.75 25.4375 48.4583 21.1875 43.875C17.5 39.8958 15.6563 35.1354 15.6563 29.5938ZM17.9375 30.1875C17.9375 33.9792 19.3438 37.0208 22.1562 39.3125C25.6562 42.1667 30.7812 43.5938 37.5312 43.5938C44.4479 43.5938 49.7708 42.1146 53.5 39.1562C56.3333 36.8854 57.75 33.8854 57.75 30.1563C57.75 26.1771 56.1979 22.8958 53.0938 20.3125C49.9896 17.7083 45.0938 16.4062 38.4062 16.4062C31.1563 16.4062 25.75 17.8333 22.1875 20.6875C19.3542 22.9792 17.9375 26.1458 17.9375 30.1875Z" fill="white"/>
<path d="M21.9375 15.3125L24.0153 17.4764L24.0208 17.4712L24.0263 17.4659L21.9375 15.3125ZM53.75 44.8125L55.8217 46.9823L55.8274 46.9769L53.75 44.8125ZM21.1875 43.875L18.9871 45.9141L18.9877 45.9148L21.1875 43.875ZM22.1562 39.3125L24.0522 36.9875L24.0513 36.9868L22.1562 39.3125ZM53.5 39.1562L55.3645 41.5065L55.3703 41.5019L55.3762 41.4972L53.5 39.1562ZM53.0938 20.3125L51.1656 22.6108L51.1747 22.6184L53.0938 20.3125ZM22.1875 20.6875L20.3117 18.3462L20.3009 18.355L22.1875 20.6875ZM15.6563 29.5938H18.6562C18.6562 24.9599 20.3804 20.9667 24.0153 17.4764L21.9375 15.3125L19.8597 13.1486C15.1196 17.7 12.6563 23.2276 12.6563 29.5938H15.6563ZM21.9375 15.3125L24.0263 17.4659C27.5877 14.0113 32.0265 12.25 37.5625 12.25V9.25V6.25C30.5985 6.25 24.6207 8.53035 19.8487 13.1591L21.9375 15.3125ZM37.5625 9.25V12.25C43.3079 12.25 47.8844 14.0364 51.5208 17.5124L53.5938 15.3438L55.6667 13.1751C50.8031 8.52615 44.6921 6.25 37.5625 6.25V9.25ZM53.5938 15.3438L51.5208 17.5124C55.1913 21.0209 56.9688 25.1593 56.9688 30.0938H59.9688H62.9688C62.9688 23.4866 60.4962 17.7916 55.6667 13.1751L53.5938 15.3438ZM59.9688 30.0938H56.9688C56.9688 35.1241 55.219 39.2443 51.6726 42.6481L53.75 44.8125L55.8274 46.9769C60.5726 42.4224 62.9688 36.7301 62.9688 30.0938H59.9688ZM53.75 44.8125L51.6783 42.6427C48.1739 45.9886 43.5914 47.75 37.6562 47.75V50.75V53.75C44.8878 53.75 51.0344 51.5531 55.8217 46.9823L53.75 44.8125ZM37.6562 50.75V47.75C31.6905 47.75 27.0227 45.7557 23.3873 41.8352L21.1875 43.875L18.9877 45.9148C23.8523 51.1609 30.1637 53.75 37.6562 53.75V50.75ZM21.1875 43.875L23.3879 41.8359C20.2265 38.4244 18.6562 34.3972 18.6562 29.5938H15.6563H12.6563C12.6563 35.8736 14.7735 41.3673 18.9871 45.9141L21.1875 43.875ZM17.9375 30.1875H14.9375C14.9375 34.8341 16.7139 38.7478 20.2612 41.6382L22.1562 39.3125L24.0513 36.9868C21.9736 35.2939 20.9375 33.1242 20.9375 30.1875H17.9375ZM22.1562 39.3125L20.2603 41.6375C24.5045 45.0985 30.419 46.5938 37.5312 46.5938V43.5938V40.5938C31.1435 40.5938 26.808 39.2349 24.0522 36.9875L22.1562 39.3125ZM37.5312 43.5938V46.5938C44.8278 46.5938 50.9114 45.0391 55.3645 41.5065L53.5 39.1562L51.6355 36.806C48.6302 39.1901 44.0681 40.5938 37.5312 40.5938V43.5938ZM53.5 39.1562L55.3762 41.4972C58.9419 38.6393 60.75 34.7672 60.75 30.1563H57.75H54.75C54.75 33.0036 53.7247 35.1315 51.6238 36.8153L53.5 39.1562ZM57.75 30.1563H60.75C60.75 25.2708 58.79 21.15 55.0128 18.0066L53.0938 20.3125L51.1747 22.6184C53.6058 24.6416 54.75 27.0834 54.75 30.1563H57.75ZM53.0938 20.3125L55.0219 18.0142C51.1229 14.7432 45.3739 13.4062 38.4062 13.4062V16.4062V19.4062C44.8136 19.4062 48.8563 20.6735 51.1656 22.6108L53.0938 20.3125ZM38.4062 16.4062V13.4062C30.8499 13.4062 24.6398 14.8787 20.3117 18.3462L22.1875 20.6875L24.0633 23.0288C26.8602 20.788 31.4626 19.4062 38.4062 19.4062V16.4062ZM22.1875 20.6875L20.3009 18.355C16.6805 21.2832 14.9375 25.3523 14.9375 30.1875H17.9375H20.9375C20.9375 26.9393 22.0278 24.6751 24.0741 23.02L22.1875 20.6875Z" fill="white" mask="url(#path-2-outside-1_1_40)"/>
</svg>
